#!OML:ASF Y:\EmotionMaleHayes\Project 1\Capture day 1\Session 1\Male1.ASF
:FULLY-SPECIFIED
:DEGREES
1752
root 12.8816 17.0048 6.49427 174.561 -22.8497 -177.996
lowerback 7.62626 0.203968 0.759857
upperback 2.66786 0.173872 2.90104
thorax -1.52506 -0.0112632 2.55267
lowerneck -20.2927 4.01955 7.87214
upperneck 34.6714 0.47947 1.33218
head 15.8035 0.812691 -0.880227
rclavicle -2.62893e-014 5.56597e-015
rhumerus -34.0784 -1.61611 -77.302
rradius 35.9875
rwrist 2.88885
rhand -9.04043 -31.3447
rfingers 7.12502
rthumb 16.9075 -60.6288
lclavicle -2.62893e-014 5.56597e-015
lhumerus -37.1491 -12.4758 92.6683
lradius 28.5841
lwrist -4.67131
lhand -15.5427 -22.1814
lfingers 7.12502
lthumb 10.6413 7.5292
rfemur 3.47561 -10.6593 23.4034
rtibia 8.22712
rfoot -11.4679 3.99524
rtoes 26.7215
lfemur 5.43747 6.1832 -9.63848
ltibia 54.4491
lfoot -2.74485 5.32486
ltoes -16.4939
1753
root 12.8522 17.0037 6.38785 174.09 -22.6037 -177.593
lowerback 7.81955 0.321809 1.18401
upperback 2.7449 0.352027 2.9544
thorax -1.55653 0.0721546 2.35349
lowerneck -20.3971 4.04686 7.77404
upperneck 34.8067 0.495842 1.42469
head 15.8939 0.820979 -0.820511
rclavicle -4.88016e-014 1.82882e-014
rhumerus -33.3456 -0.762733 -77.5019
rradius 35.9908
rwrist 2.79326
rhand -8.62629 -31.0318
rfingers 7.12502
rthumb 17.3061 -60.2813
lclavicle -4.88016e-014 1.82882e-014
lhumerus -37.2663 -11.9702 92.1012
lradius 28.478
lwrist -4.16496
lhand -16.0271 -22.1011
lfingers 7.12502
lthumb 10.174 7.63294
rfemur 4.3704 -10.7726 23.7359
rtibia 8.04151
rfoot -11.7231 4.45812
rtoes 26.7836
lfemur 4.52217 6.15615 -9.24871
ltibia 54.967
lfoot -3.79042 5.10281
ltoes -16.9459
1754
root 12.8305 16.9987 6.28837 173.82 -22.4931 -177.318
lowerback 7.9636 0.422393 1.41703
upperback 2.74068 0.504292 2.96866
thorax -1.64323 0.14675 2.22322
lowerneck -20.5353 4.10707 8.08608
upperneck 34.9814 0.54016 1.14702
head 16.0209 0.844368 -0.984819
rclavicle 2.31087e-014 4.69132e-014
rhumerus -32.7883 0.434407 -77.8267
rradius 36.2264
rwrist 2.20984
rhand -9.25691 -31.7391
rfingers 7.12502
rthumb 16.6991 -61.0408
lclavicle 2.31087e-014 4.69132e-014
lhumerus -37.4559 -11.2771 91.4328
lradius 28.4443
lwrist -4.09536
lhand -16.4946 -22.2056
lfingers 7.12502
lthumb 9.72301 7.54996
rfemur 5.01491 -11.1885 23.971
rtibia 7.90901
rfoot -11.89 4.83368
rtoes 25.7603
lfemur 3.38311 5.76867 -9.10664
ltibia 55.3831
lfoot -5.01523 4.93595
ltoes -12.9222
1755
root 12.8176 16.9916 6.19706 173.708 -22.3899 -176.871
lowerback 8.00976 0.554618 1.77975
upperback 2.64574 0.714294 3.03131
thorax -1.76844 0.251641 2.06434
lowerneck -20.516 3.99521 8.02576
upperneck 34.9013 0.372861 1.24349
head 15.9687 0.780904 -0.96503
rclavicle -4.96962e-016 -2.78299e-014
rhumerus -32.1873 1.1623 -78.0004
rradius 36.3011
rwrist 2.03277
rhand -9.32168 -31.9205
rfingers 7.12502
rthumb 16.6368 -61.2275
lclavicle -4.96962e-016 -2.78299e-014
lhumerus -37.6904 -10.8199 90.8571
lradius 28.47
lwrist -3.8977
lhand -16.7916 -22.3624
lfingers 7.12502
lthumb 9.43645 7.40632
rfemur 5.44244 -10.0504 24.8292
rtibia 7.65129
rfoot -12.2502 4.27585
rtoes 29.8406
lfemur 1.87199 5.42141 -8.78136
ltibia 55.8594
lfoot -6.0614 4.69326
ltoes -9.90497
1756
root 12.7946 16.9896 6.09815 173.597 -21.9695 -176.586
lowerback 7.97756 0.793164 2.11229
upperback 2.62539 1.05573 3.04713
thorax -1.77306 0.421363 1.86191
lowerneck -20.5359 3.83003 7.53144
upperneck 34.7613 0.12948 1.77876
head 15.889 0.691301 -0.696036
rclavicle -3.7123e-014 -5.56597e-015
rhumerus -31.4792 1.37121 -77.9844
rradius 36.256
rwrist 2.20698
rhand -9.00706 -31.517
rfingers 7.12502
rthumb 16.9396 -60.7983
lclavicle -3.7123e-014 -5.56597e-015
lhumerus -37.726 -10.1152 90.1772
lradius 28.2419
lwrist -4.06704
lhand -17.1486 -22.5938
lfingers 7.12502
lthumb 9.092 7.19027
rfemur 5.83468 -9.74092 25.3888
rtibia 7.45799
rfoot -12.5229 4.01553
rtoes 27.7786
lfemur 0.60435 5.45471 -8.59684
ltibia 56.1261
lfoot -6.91718 4.583
ltoes -9.6847
1757
root 12.7549 16.9949 5.99433 173.405 -21.5229 -176.642
lowerback 8.02766 1.03875 2.26804
upperback 2.71717 1.38816 2.95284
thorax -1.70532 0.586662 1.64577
lowerneck -20.8085 3.81662 7.71598
upperneck 34.9697 0.135825 1.42878
head 16.0563 0.676259 -0.875717
rclavicle -5.86912e-014 3.4191e-014
rhumerus -30.7038 1.53696 -77.9803
rradius 36.2651
rwrist 2.397
rhand -9.06956 -31.5415
rfingers 7.12502
rthumb 16.8795 -60.828
lclavicle -5.86912e-014 3.4191e-014
lhumerus -37.7596 -9.67458 89.5809
lradius 28.0598
lwrist -4.17333
lhand -17.9092 -22.8292
lfingers 7.12502
lthumb 8.35796 6.98543
rfemur 6.63838 -9.45148 25.2041
rtibia 7.32142
rfoot -12.6594 4.64514
rtoes 30.6349
lfemur -0.282413 5.45529 -8.91593
ltibia 56.0605
lfoot -7.61039 4.79065
ltoes -10.4058
1758
root 12.7038 17.0044 5.89235 173.044 -21.279 -176.892
lowerback 8.29515 1.23213 2.43691
upperback 2.86372 1.65543 2.72685
thorax -1.6933 0.719445 1.28922
lowerneck -20.6479 3.67875 7.48113
upperneck 34.7076 -0.0124432 1.6646
head 15.8801 0.616644 -0.761648
rclavicle 2.59166e-014 -1.15295e-014
rhumerus -29.9757 1.65285 -78.0422
rradius 36.1994
rwrist 2.95388
rhand -9.10679 -31.686
rfingers 7.12502
rthumb 16.8436 -60.9755
lclavicle 2.59166e-014 -1.15295e-014
lhumerus -38.0232 -9.89335 89.2385
lradius 28.1875
lwrist -3.63525
lhand -18.703 -22.7022
lfingers 7.12502
lthumb 7.59182 7.14152
rfemur 7.77417 -9.74098 24.4383
rtibia 7.15689
rfoot -12.7108 5.57204
rtoes 32.3931
lfemur -0.892919 5.16184 -9.59299
ltibia 55.7559
lfoot -8.21128 5.23384
ltoes -10.7162
